<svg width="446" height="574" viewBox="0 0 446 574" fill="none" xmlns="http://www.w3.org/2000/svg">
<g clip-path="url(#clip0_2509_3)">
<path d="M441.268 192.023C438.267 189.021 434.103 187.293 429.859 187.293C426.221 187.293 422.648 188.569 419.809 190.823C426.084 199.512 431.448 208.742 435.856 218.394C437.868 217.586 439.724 216.387 441.268 214.841C444.27 211.839 445.998 207.675 445.998 203.432C445.998 199.188 444.27 195.024 441.268 192.023Z" fill="#FFDE59"/>
<path d="M386.043 143.478C386.043 139.235 384.316 135.071 381.315 132.069C378.312 129.065 374.166 127.34 369.904 127.34C365.66 127.34 361.496 129.065 358.494 132.067C356.949 133.612 355.749 135.468 354.941 137.482C364.594 141.888 373.824 147.254 382.512 153.528C384.765 150.691 386.043 147.117 386.043 143.478Z" fill="#FFDE59"/>
<path d="M413.517 182.649L427.588 168.576C433.89 162.274 433.89 152.055 427.588 145.752C421.284 139.451 411.068 139.451 404.764 145.752L390.691 159.824C394.827 163.226 398.822 166.848 402.657 170.683C406.495 174.52 410.116 178.513 413.517 182.649Z" fill="#FFC600"/>
<path d="M232.001 440.064C209.556 432.037 188.985 419.067 171.628 401.714C154.273 384.358 141.305 363.786 133.277 341.342C133.265 341.605 131.742 369.009 117.963 395.329C100.031 429.579 70.1266 446.945 29.078 446.945C26.0822 446.945 23.2095 448.134 21.0891 450.253C-7.02994 478.373 -7.02994 524.13 21.0906 552.253C35.1523 566.311 53.6216 573.34 72.0908 573.34C90.56 573.34 109.029 566.311 123.091 552.252C125.21 550.131 126.399 547.259 126.399 544.263C126.399 446.646 227.73 440.282 232.001 440.064ZM70.2962 519.019C68.1969 521.117 65.2926 522.328 62.3238 522.328C59.3385 522.328 56.4327 521.117 54.3348 519.019C52.222 516.905 51.0266 513.999 51.0266 511.031C51.0266 508.044 52.222 505.139 54.3348 503.042C56.4327 500.929 59.3385 499.733 62.3238 499.733C65.2926 499.733 68.1969 500.929 70.2962 503.042C72.4091 505.139 73.6195 508.044 73.6195 511.031C73.6195 513.999 72.4091 516.904 70.2962 519.019Z" fill="#FFCC00"/>
<path d="M287.144 145.428C249.544 145.428 214.194 160.071 187.607 186.659C161.019 213.245 146.375 248.595 146.375 286.197C146.375 323.798 161.018 359.147 187.607 385.735C214.194 412.323 249.544 426.966 287.144 426.966C324.746 426.966 360.096 412.323 386.682 385.736C413.271 359.147 427.914 323.798 427.914 286.197C427.914 248.595 413.271 213.245 386.683 186.659C360.098 160.071 324.746 145.428 287.144 145.428ZM255.133 194.787H317.938C326.136 194.787 332.782 201.433 332.782 209.631C332.782 217.828 326.136 224.475 317.938 224.475H255.133C246.935 224.475 240.289 217.828 240.289 209.631C240.289 201.433 246.935 194.787 255.133 194.787ZM349.816 269.677H224.206C216.008 269.677 209.362 263.031 209.362 254.833C209.362 246.635 216.008 239.989 224.206 239.989H349.816C358.013 239.989 364.66 246.635 364.66 254.833C364.661 263.029 358.013 269.677 349.816 269.677Z" fill="white"/>
</g>
<path d="M249.213 35.0006C248.473 42.375 242.277 48.1947 234.836 48.4539C148.817 50.8859 80.4695 106.832 60.9686 191.238C59.1558 199.31 51.0338 204.333 42.9993 202.519C34.9648 200.705 29.9737 192.554 31.7865 184.482C54.4544 86.5031 133.763 21.1894 233.83 18.558C242.065 18.3785 249.022 24.9155 249.193 33.1867C249.352 33.6053 249.274 34.4027 249.213 35.0006Z" fill="white"/>
<path d="M263.713 104.108C262.973 111.482 256.777 117.302 249.336 117.561C188.041 119.256 139.332 159.257 125.488 219.268C123.675 227.34 115.555 232.363 107.521 230.549C99.4862 228.735 94.4932 220.583 96.3061 212.512C113.337 138.728 173.166 89.7784 248.33 87.6653C256.565 87.4858 263.524 94.0231 263.695 102.294C263.834 102.912 263.773 103.51 263.713 104.108Z" fill="white"/>
<defs>
<clipPath id="clip0_2509_3">
<rect width="446" height="446" fill="white" transform="translate(0 127.34)"/>
</clipPath>
</defs>
</svg>
